<svg width="252" height="250" viewBox="0 0 252 250" fill="none" xmlns="http://www.w3.org/2000/svg">
<path d="M138.297 29.3664L139.049 30.3721L150.636 21.4458L149.885 20.4391L138.297 29.3664Z" fill="#FFE1FB"/>
<path d="M245.699 154.416L246.921 154.649L249.865 138.758L248.643 138.523L245.699 154.416Z" fill="#FFE1FB"/>
<path d="M228.031 249.766L229.252 250L232.197 234.108L230.975 233.873L228.031 249.766Z" fill="#FFE1FB"/>
<path d="M239.824 186.2L241.045 186.436L243.99 170.543L242.769 170.309L239.824 186.2Z" fill="#FFE1FB"/>
<path d="M233.902 217.983L235.124 218.217L238.068 202.324L236.847 202.09L233.902 217.983Z" fill="#FFE1FB"/>
<path d="M82.6328 234.548L94.9964 244.357L95.763 243.363L83.3994 233.555L82.6328 234.548Z" fill="#FFE1FB"/>
<path d="M57.9141 214.936L70.2777 224.742L71.0433 223.749L58.6797 213.942L57.9141 214.936Z" fill="#FFE1FB"/>
<path d="M33.1953 195.319L45.5589 205.125L46.3245 204.133L33.9609 194.326L33.1953 195.319Z" fill="#FFE1FB"/>
<path d="M117.469 69.1787H216.605L230.605 247.85H118.627L117.469 69.1787Z" fill="#B7BF47"/>
<path d="M127.492 168.458L164.713 69.2034H180.221L174.2 87.0836L179.674 85.9893L184.6 173.932H201.751L210.873 208.415H218.172L224.74 230.31L227.477 247.642H117.457L127.492 168.458Z" fill="#999B32"/>
<path d="M217.489 208.412H216.101L208.326 75.9811L177.809 76.2636L178.285 74.8544L209.61 74.5631L217.489 208.412ZM122.432 208.126H121.94L121.634 159.482L123.016 160.982L123.276 201.465L122.432 208.126ZM121.535 143.606L121.468 132.982C121.928 132.711 122.386 132.44 122.831 132.176L122.891 141.639C122.45 142.309 121.998 142.964 121.535 143.606ZM121.303 106.925L121.105 75.3848L151.98 75.0985L152.069 75.9103C151.824 76.0884 151.557 76.2872 151.273 76.5086L122.473 76.7753L122.66 105.733C122.196 106.169 121.742 106.568 121.303 106.925Z" fill="#E1E26C"/>
<path d="M125.582 241.637C125.431 241.171 125.29 240.687 125.158 240.184L217.954 239.682L216.118 208.413H217.506L219.433 241.133L125.582 241.637ZM123.336 208.127H122.449L123.294 201.466L123.336 208.127ZM172.22 76.3159C171.79 76.0571 171.353 75.8209 170.91 75.6064L171.019 75.5857L170.857 74.9245L178.302 74.8556L177.827 76.2647L172.22 76.3159Z" fill="#D4D34C"/>
<path d="M216.02 69.1787H241.062L251.999 247.85H225.713L216.02 69.1787Z" fill="#A5A53A"/>
<path d="M246.077 222.655H233.217L226.285 96.5595H238.538L246.077 222.655Z" fill="#CBC94F"/>
<path d="M218.128 69.1787L227.751 247.85H224.029L214.336 69.1787H218.128Z" fill="#999B32"/>
<path d="M115.781 150.576C85.0708 160.308 9.16016 173.068 9.16016 173.068L9.59314 174.365H127.675L115.781 150.576Z" fill="#7C3552"/>
<path d="M122.922 162.617L127.664 174.365H9.58221L9.55859 174.296L122.922 162.617Z" fill="#602540"/>
<path d="M120.874 133.339C145.005 119.159 147.044 115.8 151.308 106.967C155.571 98.132 159.14 79.8779 149.982 79.3032C145.405 79.0149 138.995 86.5429 132.832 94.0709C126.664 101.605 120.744 109.14 117.161 108.838C113.928 108.565 111.653 115.127 111.357 121.687C110.996 129.662 113.559 137.637 120.874 133.339Z" fill="#EADDBE"/>
<path d="M115.118 109.098C116.59 111.962 122.289 114.918 125.521 111.712C139.05 98.2974 140.787 85.987 147.719 82.3381C148.043 82.1679 149.253 82.2387 150.572 82.3096C152.38 82.407 154.392 82.5044 154.6 81.9789C157.339 87.7317 154.523 99.7538 151.306 106.418C147.042 115.252 145.003 118.611 120.872 132.79C108.907 139.821 109.661 114.032 115.118 109.098Z" fill="#D8C5A0"/>
<path d="M141.523 88.1784C146.821 78.5554 153.823 74.7776 153.823 74.7776C153.823 74.7776 172.854 68.83 179.126 84.8336C185.398 100.837 163.988 150.363 160.31 159.663C156.634 168.962 152.526 171.989 131.764 170.475L114.246 151.444C133.926 135.656 138.05 94.4852 141.523 88.1784Z" fill="#EADDBE"/>
<path d="M131.598 123.476C130.169 134.197 142.297 145.15 146.813 144.8C154.036 144.242 163.607 117.358 171.445 94.7469C173.594 88.5455 174.584 83.0062 174.749 78.2375C176.49 79.8514 178.013 81.9907 179.126 84.8336C185.398 100.837 163.988 150.363 160.31 159.663C156.634 168.962 152.526 171.989 131.764 170.475L114.246 151.444C122.291 144.991 127.733 134.297 131.598 123.476Z" fill="#D8C5A0"/>
<path d="M133.682 103.431L100.593 100.187L67.5039 105.378L102.084 107.335L133.892 104.658L133.682 103.431Z" fill="#DBC8A2"/>
<path d="M95.6797 100.964L100.635 100.187L133.725 103.431L133.935 104.658L128.956 105.078L95.6797 100.964Z" fill="#D3BB92"/>
<path d="M92.1898 48.0678L100.624 100.189L67.5354 105.38L56.7227 58.8825L92.1898 48.0678Z" fill="#EADDBE"/>
<path d="M92.1898 48.0678L67.5354 105.38L56.7227 58.8825L92.1898 48.0678Z" fill="#F4E8CE"/>
<path d="M89.4297 48.9116L92.2037 48.0643L100.638 100.185L97.306 100.708L89.4297 48.9116Z" fill="#DBC8A2"/>
<path d="M154.228 134.579C174.974 115.792 176.31 113.811 178.689 104.295C181.068 94.7792 180.851 76.1807 171.769 77.4777C162.685 78.7746 152.953 110.783 145.816 111.648C138.679 112.513 142.766 144.96 154.228 134.579Z" fill="#EADDBE"/>
<path d="M145.819 111.651C150.346 111.102 155.919 98.0177 161.707 88.195C165.043 82.5337 153.807 111.151 146.67 112.016C141.067 112.695 142.384 132.832 148.755 136.436C141.66 134.232 139.974 112.359 145.819 111.651Z" fill="#D8C5A0"/>
<path d="M154.127 120.006C174.873 101.217 176.187 97.5135 178.566 87.9977C178.796 87.0816 179 86.0779 179.176 85.018C180.526 90.941 180.008 99.0161 178.687 104.298C176.309 113.813 174.995 117.517 154.25 136.305C144.434 145.196 140.017 121.426 143.433 113.869C145.24 120.239 148.922 124.721 154.127 120.006Z" fill="#D8C5A0"/>
<path d="M116.574 110.12C103.923 105.237 77.7383 106.06 77.7383 106.06L81.023 110.621C81.023 110.621 111.368 136.082 118.677 133.305C126.284 130.413 121.712 112.103 116.574 110.12Z" fill="#FF9566"/>
<path d="M154.474 110.35C147.607 98.5983 132.232 88.0542 132.232 88.0542L125.277 92.8328C125.277 92.8328 141.287 135.58 148.471 137.157C155.658 138.734 157.201 115.018 154.474 110.35Z" fill="#FFB882"/>
<path d="M148.593 122.683C152.038 123.438 154.182 118.381 155.186 112.399C156.814 119.712 154.906 138.568 148.471 137.157C141.287 135.58 125.277 92.8328 125.277 92.8328C125.277 92.8328 143.823 121.636 148.593 122.683Z" fill="#FF9566"/>
<path d="M122.198 15.734C122.198 15.734 122.081 16.3806 121.957 17.4443C121.967 16.416 122.198 15.734 122.198 15.734Z" fill="#CE5230"/>
<path d="M121.967 17.4443C121.958 18.3092 122.102 19.4143 122.695 20.5991C123.993 23.195 130.967 24.1683 127.561 12.8133C124.155 1.46033 133.886 0 133.886 0C133.886 0 127.723 5.35223 134.86 8.27289C141.997 11.1926 138.591 1.94645 145.89 0.81086C153.188 -0.323753 155.46 10.7055 155.46 10.7055C155.46 10.7055 158.379 3.89289 168.598 7.78579C178.816 11.6787 172.166 19.7892 172.166 19.7892C172.166 19.7892 181.736 21.41 182.384 34.0629C183.034 46.7138 176.059 42.0101 176.059 42.0101C177.193 49.7959 170.544 53.3641 170.544 53.3641C170.544 53.3641 168.76 56.6084 167.624 64.8804L138.591 38.2795C120.24 43.3848 121.254 23.5021 121.967 17.4443Z" fill="#7A4939"/>
<path d="M142.704 34.2617C155.625 28.1802 167.648 20.6877 165.13 7.91669C165.053 7.52307 164.934 7.14815 164.835 6.76437C165.961 6.94248 167.198 7.26032 168.578 7.7858C178.797 11.6787 172.147 19.7883 172.147 19.7883C172.147 19.7883 181.716 21.41 182.365 34.0629C183.014 46.7138 176.039 42.0101 176.039 42.0101C177.174 49.7959 170.525 53.3641 170.525 53.3641C170.525 53.3641 168.741 56.6084 167.605 64.8804L138.572 38.2796C128.95 40.9562 124.656 36.7602 122.848 31.2918C126.739 36.8163 130.297 40.1 142.704 34.2617Z" fill="#603428"/>
<path d="M164.526 49.1452L171.014 75.5836C164.407 76.5293 158.483 80.0788 153.172 85.9644L150.09 57.5785L164.526 49.1452Z" fill="#FFB882"/>
<path d="M98.4567 108.187L106.242 104.726C123.111 109.268 150.36 164.416 150.36 164.416C150.36 164.416 143.44 174.147 135.654 174.147C124.841 174.147 115.974 174.147 115.974 174.147L105.81 126.784L84.8315 172.417L83.1016 171.768C83.1016 171.768 94.3473 117.702 98.4567 108.187Z" fill="#7C3552"/>
<path d="M106.778 111.224C106.778 111.224 117.297 117.8 126.077 123.477C138.793 141.045 150.344 164.416 150.344 164.416C150.344 164.416 143.424 174.147 135.638 174.147C124.825 174.147 115.958 174.147 115.958 174.147L105.794 126.784L84.8155 172.417L83.9023 172.075L106.778 111.224Z" fill="#602540"/>
<path d="M200.05 175.151H115.13C100.101 175.151 95.7814 207.125 110.81 207.125H195.73C188.059 202.821 189.12 180.224 200.05 175.151Z" fill="#CEB995"/>
<path d="M116.399 173.571H30.4802C13.4129 173.058 11.5294 208.188 28.5977 208.702H114.516C99.8833 208.261 101.766 173.131 116.399 173.571Z" fill="#FFB94A"/>
<path d="M200.814 173.572H32.647L31.9414 176.902H200.11C201.152 176.902 202.154 176.156 202.348 175.238V175.237C202.543 174.318 201.855 173.572 200.814 173.572Z" fill="#FFB94A"/>
<path d="M199.11 205.81H31.2391L30.4844 208.702H198.355C199.398 208.702 200.411 208.053 200.62 207.255C200.828 206.457 200.152 205.81 199.11 205.81Z" fill="#FFB94A"/>
<path d="M201.542 173.571L111.817 173.572L111.441 176.901H201.166C201.722 176.901 202.257 176.155 202.361 175.237V175.236C202.464 174.317 202.098 173.571 201.542 173.571Z" fill="#EF7335"/>
<path d="M200.634 205.81H111.067L110.664 208.702L200.231 208.701C200.787 208.701 201.328 208.053 201.439 207.255C201.55 206.457 201.19 205.81 200.634 205.81Z" fill="#EF7335"/>
<path d="M120.301 176.174H34.3826C17.3152 175.737 15.4317 205.655 32.5001 206.092H118.418C97.6333 204.748 99.5158 174.83 120.301 176.174Z" fill="#EF7335"/>
<path d="M117.993 177.28L42.1046 177.654C26.8331 177.246 25.1474 205.199 40.4199 205.607H117.299C104.206 205.257 104.899 176.93 117.993 177.28Z" fill="#DDCBA6"/>
<path d="M107.273 181.056H46.8951C34.9015 180.746 33.578 201.899 45.5725 202.207L105.95 202.208C95.6666 201.942 96.9901 180.791 107.273 181.056Z" fill="#EADDBE"/>
<path d="M131.146 208.13L9.86844 208.129C2.35325 208.129 2.25681 247.849 9.77199 247.849L131.049 247.85C121.331 247.85 121.427 208.13 131.146 208.13Z" fill="#5E85BC"/>
<path d="M218.291 212.8H131.294C115.899 212.8 115.826 243.175 131.221 243.175H218.217C209.772 239.086 207.783 217.619 218.291 212.8Z" fill="#DDCBA6"/>
<path d="M151.69 237.133C139.784 237.133 139.841 218.841 151.747 218.841H212.722C210.36 224.281 210.724 231.769 213.071 237.133H151.69Z" fill="#EADDBE"/>
<path d="M217.412 208.127H117.119L117.102 215.136H217.394C218.682 215.136 219.73 213.567 219.735 211.631C219.74 209.694 218.699 208.127 217.412 208.127Z" fill="#4B6F9B"/>
<path d="M217.321 240.84L117.028 240.839L117.012 247.85H217.304C218.591 247.85 219.64 246.28 219.645 244.344C219.649 242.41 218.609 240.84 217.321 240.84Z" fill="#4B6F9B"/>
<path d="M131.041 247.85H114.327C108.569 240.353 108.629 215.625 114.422 208.129H131.137C121.419 208.129 121.323 247.85 131.041 247.85Z" fill="#4B6F9B"/>
<path d="M105.971 244.188H19.5021C16.0776 244.188 14.8633 235.542 14.8633 228.137C14.8633 220.595 16.0963 211.789 19.57 211.789H106.038V213.238C103.43 213.238 101.462 219.629 101.462 228.103C101.462 236.447 103.4 242.738 105.971 242.738V244.188ZM19.57 213.238C17.6954 213.238 16.1711 219.921 16.1711 228.137C16.1711 237.277 17.8646 242.738 19.5021 242.738H103.316C101.151 240.06 100.154 234.061 100.154 228.103C100.154 222.044 101.166 215.946 103.37 213.238H19.57Z" fill="#A2CED1"/>
<path d="M68.9531 173.506H85.495C85.495 173.506 87.8065 170.83 84.8878 169.37C81.9682 167.911 68.9531 173.506 68.9531 173.506Z" fill="#F4E6C9"/>
<path d="M0 161.01L7.77399 175.613C7.77399 175.613 11.2221 176.395 11.1385 173.132C11.0548 169.869 0 161.01 0 161.01Z" fill="#F4E6C9"/>
<path d="M151.349 69.1768L150.09 57.5807L151.349 69.1768Z" fill="#DF6C1E"/>
<path d="M151.994 75.0986L151.352 69.1756L151.994 75.0986Z" fill="#A06A28"/>
<path d="M152.061 75.9136L151.973 75.1017L152.061 75.9136Z" fill="#C47E3C"/>
<path d="M170.906 75.6084C170.904 75.6074 170.901 75.6065 170.898 75.6055C170.938 75.5996 170.977 75.5936 171.016 75.5877L170.906 75.6084Z" fill="#B9752A"/>
<path d="M144.664 83.3267C144.636 82.7461 144.619 82.1556 144.613 81.5564C145.701 80.7386 146.749 80.0999 147.738 79.7221C146.748 80.7455 145.706 81.9421 144.664 83.3267Z" fill="#CC7B6A"/>
<path d="M154.703 98.0195C154.188 98.0195 153.664 97.9654 153.129 97.8483C147.268 96.572 145.011 90.7789 144.645 83.3297C145.686 81.9451 146.728 80.7485 147.718 79.7251C147.719 79.7241 147.719 79.7241 147.719 79.7241C149.422 77.9626 150.964 76.7168 152.073 75.9148V75.9138L153.164 85.9689C158.444 80.1187 164.329 76.5761 170.889 75.6058C170.892 75.6068 170.895 75.6078 170.897 75.6088L170.881 75.6127C171.961 76.1333 173.007 76.7857 173.995 77.5897C173.572 77.4755 173.121 77.4165 172.645 77.4165C172.36 77.4165 172.067 77.4371 171.764 77.4804C167.506 78.0886 163.105 85.4453 158.897 93.178C158.892 93.1869 158.888 93.1947 158.883 93.2036C158.875 93.2184 158.867 93.2321 158.859 93.2479C158.855 93.2538 158.851 93.2607 158.848 93.2666C158.845 93.2715 158.844 93.2745 158.841 93.2794C158.835 93.2931 158.827 93.306 158.82 93.3197C158.818 93.3237 158.816 93.3276 158.813 93.3315C158.797 93.3601 158.782 93.3886 158.767 93.4172C158.766 93.4191 158.765 93.4211 158.764 93.423C158.756 93.4368 158.748 93.4516 158.74 93.4654C158.739 93.4673 158.739 93.4673 158.738 93.4693C157.948 94.9257 157.164 96.3919 156.389 97.8257C155.837 97.9526 155.276 98.0195 154.703 98.0195Z" fill="#CC7B6A"/>
<path d="M158.391 97.1089C160.934 91.9554 162.614 87.4495 162.271 87.4495C162.193 87.4495 162.01 87.6817 161.711 88.1905C160.769 89.7876 159.833 91.4713 158.907 93.1737C163.116 85.441 167.517 78.0843 171.775 77.4761C172.078 77.4328 172.371 77.4122 172.655 77.4122C173.132 77.4122 173.582 77.4712 174.006 77.5854C174.008 77.5883 174.011 77.5903 174.014 77.5932C175.964 78.1236 177.352 79.8172 178.299 82.1582C170.394 83.7189 164.88 93.9757 158.391 97.1089ZM158.749 93.4649C158.75 93.463 158.75 93.463 158.751 93.461C158.75 93.463 158.75 93.464 158.749 93.4649ZM158.774 93.4187C158.775 93.4167 158.776 93.4148 158.777 93.4128C158.776 93.4148 158.775 93.4167 158.774 93.4187ZM158.824 93.3272C158.827 93.3233 158.829 93.3193 158.83 93.3154C158.829 93.3193 158.826 93.3233 158.824 93.3272ZM158.852 93.275C158.855 93.2701 158.856 93.2672 158.859 93.2623C158.857 93.2662 158.854 93.2711 158.852 93.275ZM158.87 93.2435C158.878 93.2278 158.886 93.214 158.893 93.1993C158.886 93.214 158.878 93.2288 158.87 93.2435Z" fill="#CC7B6A"/>
<path d="M156.371 97.8247C157.146 96.3909 157.93 94.9247 158.72 93.4683C158.721 93.4673 158.721 93.4664 158.722 93.4644C158.73 93.4506 158.738 93.4358 158.746 93.4221C158.747 93.4201 158.748 93.4182 158.749 93.4162C158.764 93.3876 158.779 93.3591 158.795 93.3306C158.797 93.3266 158.8 93.3227 158.802 93.3188C158.809 93.305 158.816 93.2922 158.823 93.2784C158.825 93.2745 158.828 93.2696 158.83 93.2656C158.833 93.2597 158.837 93.2528 158.841 93.2469C158.849 93.2321 158.857 93.2174 158.865 93.2026C158.87 93.1938 158.874 93.1859 158.878 93.177C159.804 91.4746 160.74 89.7909 161.682 88.1938C161.981 87.6851 162.164 87.4528 162.242 87.4528C162.585 87.4528 160.906 91.9588 158.362 97.1123C157.709 97.4272 157.047 97.6702 156.371 97.8247Z" fill="#BC6E59"/>
<path d="M153.172 85.9644L152.081 75.9093L151.992 75.0975L151.349 69.1745L150.09 57.5785L164.526 49.1452L171.014 75.5836C170.975 75.5895 170.936 75.5954 170.897 75.6013C164.337 76.5716 158.451 80.1142 153.172 85.9644Z" fill="#DF6648"/>
<path d="M162.09 28.0645C166.942 47.4759 163.874 66.0193 163.874 66.0193C163.874 66.0193 150.735 73.9675 142.625 74.1299C142.625 74.1299 135.164 43.149 138.084 30.8218C141.004 18.4946 161.116 24.1716 162.09 28.0645Z" fill="#FFB882"/>
<path d="M160.297 55.1499C158.832 37.8001 157.742 26.5495 163.047 29.1247C168.352 31.701 166.533 51.2176 166.533 51.2176L160.297 55.1499Z" fill="#603428"/>
<path d="M139.009 46.2441C138.867 45.0426 139.208 44.0143 139.772 43.9483C140.334 43.8814 140.906 44.8015 141.048 46.003C141.188 47.2036 140.847 48.2309 140.284 48.2978C139.721 48.3648 139.149 47.4447 139.009 46.2441Z" fill="#633D37"/>
<path d="M147.993 44.9648C147.852 43.7633 148.193 42.735 148.756 42.669C149.319 42.6031 149.89 43.5222 150.032 44.7238C150.173 45.9253 149.831 46.9526 149.269 47.0185C148.705 47.0855 148.134 46.1654 147.993 44.9648Z" fill="#633D37"/>
<path d="M132.207 47.0945L134.663 55.9795L154.206 53.9592L154.634 45.9786L168.944 43.9042L172.361 48.1888L175.244 45.6352L170.759 42.375L132.207 47.0945Z" fill="#EADDBE"/>
<path d="M139.313 47.3664L133.414 48.1576L135.3 54.7861L139.618 54.178L139.313 47.3664Z" fill="#FFB882"/>
<path d="M139.313 47.2312L133.414 48.0213L135.3 54.6509L139.618 54.0437L139.313 47.2312Z" fill="#FFB882"/>
<path d="M139.456 54.0643L137.96 54.2749L133.598 47.9957L135.449 47.7477L139.456 54.0643Z" fill="#FFC69F"/>
<path d="M163.779 45.6946C165.474 41.0667 171.944 42.0802 170.803 45.5215C169.662 48.9637 164.851 55.2901 163.593 54.2736C162.336 53.2561 163.316 46.9621 163.779 45.6946Z" fill="#FFB882"/>
<path d="M140.342 48.3404C140.15 48.2214 137.302 60.1559 137.132 61.1961C136.963 62.2362 143.87 60.1559 143.87 60.1559C143.87 60.1559 140.874 48.6711 140.342 48.3404Z" fill="#FFB882"/>
<path d="M165.026 46.9298C165.996 44.2807 169.699 44.8613 169.045 46.8314C168.393 48.8004 165.639 52.4218 164.919 51.8392C164.2 51.2576 164.76 47.655 165.026 46.9298Z" fill="#DB5B3E"/>
<path d="M164.827 49.2908C165.444 47.6071 167.799 47.9761 167.384 49.2288C166.969 50.4805 165.218 52.7842 164.759 52.4132C164.302 52.0432 164.659 49.7523 164.827 49.2908Z" fill="#FFB882"/>
<path d="M141.398 47.1222L143.405 54.2988L152.71 53.0826L153.257 45.7839L141.398 47.1222Z" fill="#FFB882"/>
<path d="M142.574 46.994L146.545 46.5453L152.519 53.1109L148.605 53.6226L142.574 46.994Z" fill="#FFC69F"/>
<path d="M140.342 48.3404C140.442 48.4024 140.63 48.863 140.869 49.5666C139.967 53.0029 138.412 59.5832 138.288 60.3449C138.165 61.0987 141.755 60.214 143.743 59.6688C143.824 59.9778 143.87 60.1559 143.87 60.1559C143.87 60.1559 136.963 62.2362 137.132 61.1961C137.302 60.1559 140.15 48.2214 140.342 48.3404Z" fill="#FF9566"/>
<path d="M137.608 49.8491C136.985 49.9091 136.371 49.052 136.047 47.8072L138.753 47.4451C138.691 48.7794 138.247 49.7871 137.608 49.8491Z" fill="#633D37"/>
<path d="M148.472 49.2394C147.733 49.2935 147.031 48.1147 146.789 46.5166L149.73 46.1849C149.752 47.8549 149.228 49.1833 148.472 49.2394Z" fill="#633D37"/>
<path d="M156.242 40.9331C150.439 41.2706 143.751 40.0396 143.751 40.0396L143.254 34.7985C143.254 34.7985 154.639 36.7676 155.635 37.7389C156.629 38.7111 156.242 40.9331 156.242 40.9331Z" fill="#7A4939"/>
<path d="M134.757 42.3213C138.152 42.0969 141.829 40.2361 141.829 40.2361L141.355 35.0029C141.355 35.0029 135.075 38.0456 134.643 39.1035C134.211 40.1603 134.757 42.3213 134.757 42.3213Z" fill="#7A4939"/>
<path d="M142.758 62.2686L153.159 59.4848C153.159 59.4848 153.606 65.8545 148.405 66.8582C143.205 67.8629 142.758 62.2686 142.758 62.2686Z" fill="#472922"/>
<path d="M143.998 64.0977C143.545 63.1402 143.473 62.227 143.473 62.227L152.397 59.8377C152.397 59.8377 152.456 60.7558 152.227 61.8954L143.998 64.0977Z" fill="#FFF6E3"/>
<path d="M76.05 81.1645C77.3519 80.949 78.0978 78.9011 77.715 76.5906C77.5231 75.4255 77.0793 74.4188 76.5214 73.7309C77.4375 74.2613 78.2385 75.6105 78.517 77.2922C78.8988 79.6018 78.1529 81.6496 76.851 81.8651C76.2055 81.9714 75.5452 81.6063 74.9961 80.9312C75.3385 81.13 75.6958 81.2235 76.05 81.1645Z" fill="#DBC8A2"/>
<path d="M74.8464 71.3167C76.103 71.1081 77.402 72.2781 78.2483 74.134C77.4473 72.9413 76.4396 72.2486 75.4546 72.4119C73.6842 72.7032 72.6874 75.5884 73.2276 78.8535C73.3841 79.8002 73.6616 80.6612 74.008 81.4199C73.3694 80.4693 72.8586 79.2078 72.6195 77.7593C72.0793 74.4942 73.0761 71.609 74.8464 71.3167Z" fill="#D3BB92"/>
<path d="M110.738 89.6113C110.389 92.4956 111.276 94.319 112.092 94.6438C112.907 94.9685 115.677 93.886 116.141 92.9659C116.605 92.0468 111.047 87.0675 110.738 89.6113Z" fill="#FF9566"/>
<path d="M111.641 87.9324C111.884 93.3457 112.553 93.8318 113.587 94.3179C114.62 94.805 117.844 94.1359 118.209 93.2847C118.573 92.4325 117.966 90.304 117.115 90.487C116.263 90.6691 115.229 90.7301 115.229 90.7301L111.641 87.9324Z" fill="#FFB882"/>
<path d="M114.417 86.355C115.848 84.1645 126.937 84.2561 132.839 88.5436L126.818 94.564C124.85 91.3717 119.693 91.6462 116.473 91.9188C113.255 92.1924 112.986 88.5436 114.417 86.355Z" fill="#FFB882"/>
<path d="M113.961 88.9818C114.204 94.3941 114.872 94.8822 115.906 95.3683C116.941 95.8544 120.163 95.1852 120.528 94.334C120.894 93.4828 120.285 91.3543 119.434 91.5364C118.582 91.7194 117.549 91.7794 117.549 91.7794L113.961 88.9818Z" fill="#FFB882"/>
<path d="M116.698 85.2382C112.974 85.9368 110.317 87.3391 109.078 88.6981C107.84 90.057 106.302 93.5248 106.251 94.315C106.199 95.1072 108.332 96.0863 108.788 95.0462C109.243 94.005 110.67 90.8915 111.058 90.7616C111.445 90.6327 115.237 89.0228 115.417 89.0494C115.598 89.074 116.698 85.2382 116.698 85.2382Z" fill="#FFB882"/>
<path d="M84.5959 113.266C76.2934 109.708 71.8239 111.259 69.8164 105.511L82.4063 105.998L84.5959 113.266Z" fill="#FF9566"/>
<path d="M75.1101 108.432C72.3125 106.85 71.6433 104.601 71.6433 103.14C71.6433 101.681 69.3928 101.316 69.3328 102.715C69.2718 104.114 69.8189 105.817 70.427 106.729C71.0352 107.64 75.1101 108.432 75.1101 108.432Z" fill="#FF9566"/>
<path d="M78.2586 108.669C75.4609 107.089 74.7918 104.838 74.7918 103.378C74.7918 101.918 72.5413 101.553 72.4812 102.953C72.4202 104.352 72.9673 106.054 73.5755 106.967C74.1836 107.879 78.2586 108.669 78.2586 108.669Z" fill="#FF9566"/>
<path d="M81.6375 108.974C78.8398 107.393 78.1707 105.142 78.1707 103.683C78.1707 102.224 75.9211 101.858 75.8601 103.257C75.7991 104.656 76.3463 106.36 76.9544 107.271C77.5625 108.184 81.6375 108.974 81.6375 108.974Z" fill="#FF9566"/>
</svg>
